# xmcd
#
# Track frame offsets:
#	150
#	3795
#	20845
#	35342
#	50915
#	55652
#	72257
#	87992
#	107905
#	125915
#	141990
#	166940
#	187555
#	218187
#	239285
#	260820
#	270287
#	300837
#	320715
#	342335
#
# Disc length: 4737 seconds
#
# Revision: 1
# Processed by: cddbd v1.4PL0 Copyright (c) Steve Scherf et al.
# Submitted via: audiograbber 1.82.02
#
DISCID=1f127f14
DTITLE=Giant Sand - Chore Of Enchantment (Japan Issue)
DYEAR=2000
DGENRE=Country
TTITLE0=Overture
TTITLE1=(Well) Dusted (For The Millennium)
TTITLE2=Punishing Sun
TTITLE3=X-Tra Wide
TTITLE4=1972
TTITLE5=Temptation Of Egg
TTITLE6=Raw
TTITLE7=Wolfy
TTITLE8=Shiver
TTITLE9=Dirty From The Rain
TTITLE10=Astonished (In Memphis)
TTITLE11=No Reply
TTITLE12=Satellite
TTITLE13=Bottom Line Man
TTITLE14=Way To End The Day
TTITLE15=Shrine
TTITLE16=Music Arcade
TTITLE17=Astonished (In Tucson)
TTITLE18=Punishing Sun (In Tucson)
TTITLE19=Vanishing Point
EXTD=
EXTT0=
EXTT1=
EXTT2=
EXTT3=
EXTT4=
EXTT5=
EXTT6=
EXTT7=
EXTT8=
EXTT9=
EXTT10=
EXTT11=
EXTT12=
EXTT13=
EXTT14=
EXTT15=
EXTT16=
EXTT17=
EXTT18=
EXTT19=
PLAYORDER=
